inDegrees=no
num_controls=7
num_derivatives=13
num_iterations=182
num_multipliers=7
num_parameters=0
num_slacks=7
num_states=26
objective=5.427811
objective_accelerations=0.675048
objective_balance=0.133207
objective_effort=0.485221
objective_height=4.050640
objective_ligament=0.083695
solver_duration=1965.372380
status=Solve_Succeeded
success=true
DataType=double
version=3
OpenSimVersion=4.4-2022-07-23-0e9fedc
endheader
time	/jointset/ground_pelvis/pelvis_tilt/value	/jointset/ground_pelvis/pelvis_tx/value	/jointset/ground_pelvis/pelvis_ty/value	/jointset/hip_l/hip_flexion_l/value	/jointset/hip_l/hip_adduction_l/value	/jointset/hip_l/hip_rotation_l/value	/jointset/back/lumbar_extension/value	/jointset/patellofemoral_l/patellar_flexion_l/value	/jointset/knee_l/knee_flexion_l/value	/jointset/knee_l/knee_adduction_l/value	/jointset/knee_l/knee_rotation_l/value	/jointset/ankle_l/ankle_angle_l/value	/jointset/subtalar_l/subtalar_angle_l/value	/jointset/ground_pelvis/pelvis_tilt/speed	/jointset/ground_pelvis/pelvis_tx/speed	/jointset/ground_pelvis/pelvis_ty/speed	/jointset/hip_l/hip_flexion_l/speed	/jointset/hip_l/hip_adduction_l/speed	/jointset/hip_l/hip_rotation_l/speed	/jointset/back/lumbar_extension/speed	/jointset/patellofemoral_l/patellar_flexion_l/speed	/jointset/knee_l/knee_flexion_l/speed	/jointset/knee_l/knee_adduction_l/speed	/jointset/knee_l/knee_rotation_l/speed	/jointset/ankle_l/ankle_angle_l/speed	/jointset/subtalar_l/subtalar_angle_l/speed	/forceset/tau_hip_flexion_l	/forceset/tau_hip_adduction_l	/forceset/tau_hip_rotation_l	/forceset/tau_knee_flexion_l	/forceset/tau_ankle_angle_l	/forceset/tau_subtalar_angle_l	/forceset/tau_lumbar_extension	lambda_cid13_p0	lambda_cid13_p1	lambda_cid13_p2	lambda_cid13_p3	lambda_cid13_p4	lambda_cid13_p5	lambda_cid14_p0	/jointset/ground_pelvis/pelvis_tilt/accel	/jointset/ground_pelvis/pelvis_tx/accel	/jointset/ground_pelvis/pelvis_ty/accel	/jointset/hip_l/hip_flexion_l/accel	/jointset/hip_l/hip_adduction_l/accel	/jointset/hip_l/hip_rotation_l/accel	/jointset/back/lumbar_extension/accel	/jointset/patellofemoral_l/patellar_flexion_l/accel	/jointset/knee_l/knee_flexion_l/accel	/jointset/knee_l/knee_adduction_l/accel	/jointset/knee_l/knee_rotation_l/accel	/jointset/ankle_l/ankle_angle_l/accel	/jointset/subtalar_l/subtalar_angle_l/accel	gamma_cid13_p0	gamma_cid13_p1	gamma_cid13_p2	gamma_cid13_p3	gamma_cid13_p4	gamma_cid13_p5	gamma_cid14_p0
1.5	-0.3197296815881838	-0.03660595704732678	0.6799914886551217	1.428077222720945	-0.2492111602647782	-0.01007028567782207	-0.3869265934422113	1.19805365688746	1.198053656887459	0.02665653124282935	0.1745329251994329	0.3052183404207793	0.0835358884198089	0.2358163894518202	0.07829729875323291	0.8363257822175617	-2.556861298435277	-0.06490541355264115	-0.3927893229625214	0.4820863553603149	-2.924072572568166	-2.924072572568185	-0.4995616503474891	-1.895466672340558e-05	-0.7558184150760275	-0.3050474314604013	-0.2267290822150351	0.001106309412004954	-0.01095802102580507	-0.3258071177573176	0.07403279216000892	0.03070022664444383	0.2279461363586917	-14.57539839398848	-9.349180350165275	-0.5474569176054155	-2.403814107332358	-625.2295436841356	-66.16438222780749	-0.711450191008958	1.548371963077348	0.9978218894158463	-0.3045356685309687	-2.880923789805683	-0.2396638799817852	-1.195441815115336	2.66879581010728	-3.060609959005163	-3.060609959005163	-0.3768837232065317	-0.0922062385510672	-2.000318684973266	-0.4608736223216052	-2.71097786907409e-07	5.265381668955944e-06	4.222198333476065e-06	9.509540714292629e-07	2.687995094948531e-07	5.007326011363663e-06	-5.816643207591858e-08
1.51	-0.3172947716768312	-0.03577304973072535	0.6883373475040335	1.402367758082846	-0.2498729706442303	-0.01406465373841663	-0.3819726567385034	1.168663137768313	1.168663137768312	0.02164632607338017	0.1745327594663791	0.2975608771720102	0.08046190001711316	0.2510970451774186	0.08828983902326097	0.8326220352159807	-2.584687493452743	-0.06741690839405576	-0.4061505923720082	0.5086849589738742	-2.953619787565865	-2.953619787565864	-0.5024021790342784	-8.652210640201741e-06	-0.7755293264106734	-0.309620814877525	-0.2203534958173247	0.001201093027494127	-0.0103961986730979	-0.3182237943631183	0.07559571912306411	0.03027776813991099	0.2222005621206436	-13.59775995287234	-9.510429068658842	-0.3235159887024138	-2.930808161573293	-617.0726297506752	-65.4210759697832	-1.35944231558015	1.507623577250992	1.001019251043308	-0.4368220379202283	-2.681857346448537	-0.2517821629022137	-1.416247685589295	2.65298867587209	-2.840063480916702	-2.840063480913682	-0.2252953171756661	0.04773746868150485	-1.934507114855118	-0.4375885653717008	-2.294615622665788e-07	5.721104828606063e-06	4.165910206743271e-06	9.766808836438866e-07	3.059920614709345e-07	5.017493187579404e-06	-7.51884293943258e-10
1.52	-0.3147091129682325	-0.03484000718037423	0.6966394633185397	1.376390353496826	-0.2505588739474327	-0.01819459012945081	-0.3767532147908815	1.138989489257036	1.138989489257035	0.01661018404191081	0.1745327067683422	0.2897106988584656	0.07734577420745341	0.2659661489010133	0.09832434550316968	0.827577175336458	-2.610449288019469	-0.06972399830270709	-0.4199029890504529	0.5351874041431072	-2.98069845099414	-2.980698450994119	-0.5047490227514893	5.209485182625375e-06	-0.7943614280311144	-0.3134749128532064	-0.2139779094196139	0.001295876642983587	-0.00983437632039192	-0.3106404709689189	0.07715864608611935	0.02985530963537856	0.2164549878825958	-12.60463403297749	-9.690059821623512	-0.07875181596390028	-3.576440330218662	-608.7205494858135	-64.70203389612688	-2.245741789040256	1.46606156267662	1.006215131391971	-0.5727582441192496	-2.468043699657761	-0.1987828934291318	-1.273667268906889	2.649564121242021	-2.566899645120121	-2.566899645120103	-0.2781467292908631	-0.09149439060314296	-1.824556742132319	-0.3170165340331251	-1.274672728417594e-07	6.024288487878665e-06	3.500216307028882e-06	9.355555364171873e-07	3.735977109371864e-07	4.775241381510906e-06	1.0753943027087e-07
1.53	-0.3119767835698976	-0.03380646037042012	0.7048844756715742	1.350165548401741	-0.251267251144054	-0.02246212495631758	-0.3712696943481317	1.109057784999886	1.109057784999886	0.01155035916181614	0.1745329251994329	0.2816768124356457	0.07419409938137872	0.2804139217110173	0.1083829259307324	0.8212047278182921	-2.634142754784297	-0.07189690874447822	-0.4336470355117301	0.5614714779264967	-3.005191896958025	-3.005191896958015	-0.5071430546058545	2.61627121920767e-05	-0.8122372662968287	-0.3167135218127014	-0.2070862767802338	0.0006744373819770834	-0.009410717482430102	-0.3038108429608677	0.07907189618254234	0.02963293379083319	0.2102651501484339	-11.50266752507149	-10.00875605146179	0.2260106841435417	-4.188869147376158	-600.4920798039319	-64.35962769682068	-3.367523702011316	1.421291595491437	1.00551858625477	-0.702467721577493	-2.264621508105851	-0.218891138488273	-1.430714905724471	2.611048034835221	-2.323062910485809	-2.323062910487513	-0.2082172678373573	0.04637541276010891	-1.742066628166538	-0.3064686201456189	3.865746041604779e-08	6.165398928000155e-06	2.187028773521556e-06	8.233997697840831e-07	4.735172764867444e-07	4.264794406765408e-06	2.698873095424479e-07
1.54	-0.3091025451523967	-0.03267235993862713	0.7130591676062448	1.323714883970367	-0.2519958266488804	-0.02686828856199442	-0.3655246893619584	1.078894647115403	1.078894647115405	0.006468956792311942	0.1745328683369699	0.2734695737782936	0.07101420135706149	0.2943479527341872	0.118435069870949	0.8135130916636375	-2.655621155277546	-0.0737636599437361	-0.4476287448124607	0.5874843128277987	-3.026985176460433	-3.026985176460435	-0.5090645206333398	-5.347472451368582e-05	-0.8290318749375658	-0.3191195525017137	-0.2001946441408537	5.299812097053591e-05	-0.008987058644468015	-0.2969812149528165	0.08098514627896533	0.02941055794628778	0.2040753124142722	-10.38848804364014	-10.35009174305338	0.5577958971539541	-4.908293296065887	-592.0939693257343	-64.0929011889621	-4.710889675148268	1.363313205309794	1.004927833922767	-0.8365959714169743	-2.025030445342034	-0.1375510449264792	-1.321199836797583	2.595316344824559	-2.026866352824673	-2.02686635282467	-0.1836335639148764	-0.1116125233461866	-1.608310817136937	-0.1505008799365952	9.091693387389333e-08	6.534872734461441e-06	1.972307130485441e-06	8.333938319958632e-07	5.009416335460277e-07	4.155899038421126e-06	3.412697848320135e-07
1.55	-0.3060915408846637	-0.03143792450130575	0.7211504640520288	1.29706049050837	-0.2527414412075226	-0.03141701562710577	-0.3595212658136875	1.048527144412176	1.048527144412178	0.001371733796725429	0.1745326568424794	0.2650998863936995	0.06781445556746846	0.3077619356274293	0.1284334700024822	0.8045355876530019	-2.674875059917549	-0.07531677636751227	-0.46209884393655	0.6131248881454086	-3.046044131950665	-3.046044131950654	-0.5103954792550469	1.106091901217434e-05	-0.8447222893888232	-0.3207138084922466	-0.1932873281170851	-0.0006289308288849172	-0.008707140051739705	-0.2904236610966016	0.08236814235188199	0.02902825415446044	0.197791285934419	-9.491181012777826	-10.58761125567695	0.8771621377575017	-5.23984639943695	-584.0612368554204	-63.68691387849004	-6.282299973622454	1.316815260524325	0.9947275372773386	-0.9598363577672645	-1.818182727966157	-0.1587857895885718	-1.506844356653595	2.537101823083867	-1.77478316686911	-1.774783166867314	-0.1090324294279098	0.06466140824476803	-1.521609316333678	-0.1481376642928779	1.198382538831185e-08	7.167460854314217e-06	3.023209230818262e-06	9.841257404854371e-07	4.448389025621732e-07	4.509660955713e-06	3.078442946640489e-07
1.56	-0.3029491219021596	-0.03010401877576728	0.7291456837093303	1.270225035549047	-0.2535015057000997	-0.03610982956474589	-0.3532637017726695	1.017983177550096	1.0179831775501	-0.003739039868704191	0.1745329251994329	0.2565788543531503	0.06460191727683386	0.3206308956883873	0.138329127514365	0.7942977339671504	-2.691833454743022	-0.07665364673070392	-0.4764461193181987	0.6383124113772053	-3.062278008230765	-3.062278008230743	-0.5117746546019256	4.25885642498871e-05	-0.8593008061286221	-0.3216780527100292	-0.1863800120933165	-0.001310859778740456	-0.008427221459011931	-0.2838661072403867	0.08375113842479863	0.0286459503626329	0.1915072594545658	-8.579306120155966	-10.84695618476473	1.222018290205261	-5.683617787188811	-575.8272345019975	-63.33328333967056	-8.083082853912641	1.254308638852955	0.9843793099926794	-1.088665906460119	-1.56592848243602	-0.09430183280957796	-1.296635088309445	2.504705927661946	-1.461850510798633	-1.461850510798637	-0.1932769089492157	-0.1182141230038147	-1.385931274845241	-0.02449852538653579	-1.203722319165199e-07	7.274900369811853e-06	4.226765307853481e-06	1.117801855936731e-06	3.055555241071022e-07	4.504117005311182e-06	2.200775363220585e-07
1.57	-0.2996810126047078	-0.02867175622726695	0.7370322680667029	1.243232031952657	-0.254272724758444	-0.04094684138781808	-0.3467566770281127	0.9872915899494086	0.9872915899494107	-0.008861085129236862	0.1745329251994329	0.247918237059049	0.06138443525075205	0.3328803490791913	0.1480930944707476	0.7828217824741502	-2.706359112502956	-0.0775431737723819	-0.490940603918876	0.6629801526771001	-3.075547863714266	-3.075547863714257	-0.512646928325669	-2.079159402150653e-05	-0.8726232234371952	-0.3217090256579982	-0.1790447290973757	-0.001579980395408811	-0.008392381156410842	-0.2781782102561957	0.08583176475969462	0.02768430662659108	0.1848697422415991	-7.504246110721842	-10.83872711188324	1.47334847226415	-6.113964067172281	-567.9676573283567	-62.4894447270376	-10.06266369929054	1.19366367172702	0.9681212008674998	-1.206678578097004	-1.334684460125121	-0.08061281624875996	-1.523578037839134	2.430950502597202	-1.185800786776841	-1.185800786778826	-0.03504408117308769	0.05130513509096988	-1.275213713048152	0.02222673988279958	-3.195069752454138e-07	6.725904129865571e-06	5.621138855766696e-06	1.230158230090174e-06	6.229633631301189e-08	4.049440720292254e-06	6.438419276253652e-08
1.58	-0.2962937287768414	-0.0271427108467215	0.7447981691476699	1.216106011771197	-0.2550517060224856	-0.04592834263527545	-0.3400063464162682	0.956482054249956	0.9564820542499561	-0.01399202142242421	0.1745326493186878	0.2391304322410251	0.05816956817906752	0.3444658017713114	0.1576856939233882	0.7701610786860694	-2.718436771757012	-0.07820608787013401	-0.5053440041952443	0.6869735848347532	-3.08586762798381	-3.085867627983814	-0.5135528611328595	-1.596785910205332e-05	-0.8847383109131609	-0.3211550618305718	-0.1717094461014346	-0.00184910101207697	-0.008357540853810047	-0.2724903132720045	0.08791239109459065	0.02672266289054953	0.1782322250286326	-6.430274265060777	-10.83386670426952	1.729272919264604	-6.568093851320148	-560.1250165727429	-61.65186656209729	-12.06435482106815	1.121508499116198	0.9501058092442787	-1.325616365476221	-1.076328781260342	-0.04897924402440454	-1.278418223447672	2.369844099213617	-0.8718322680072746	-0.8718322680072744	-0.2000087256385975	-0.1045733443656467	-1.14446530832378	0.09248882969255411	-4.545365698441317e-07	6.346031016646854e-06	6.574010713191349e-06	1.300333897252027e-06	-1.077270671112067e-07	3.613689595844301e-06	-3.7254743901522e-08
